# Wavefront OBJ file automatically generated by Tiled2Unity

# Vertices (Count = 92)
v -1.59999990463257 -2.55999994277954 0
v -1.91999995708466 -2.55999994277954 0
v -1.91999995708466 -2.24000000953674 0
v -1.59999990463257 -2.24000000953674 0
v -2.24000000953674 -2.55999994277954 0
v -2.24000000953674 -2.24000000953674 0
v -2.55999994277954 -2.55999994277954 0
v -2.55999994277954 -2.24000000953674 0
v -2.87999987602234 -2.55999994277954 0
v -2.87999987602234 -2.24000000953674 0
v -3.19999980926514 -2.55999994277954 0
v -3.19999980926514 -2.24000000953674 0
v -3.51999998092651 -2.55999994277954 0
v -3.51999998092651 -2.24000000953674 0
v -3.83999991416931 -2.55999994277954 0
v -3.83999991416931 -2.24000000953674 0
v -4.15999984741211 -2.55999994277954 0
v -4.15999984741211 -2.24000000953674 0
v -4.48000001907349 -2.55999994277954 0
v -4.48000001907349 -2.24000000953674 0
v -4.79999971389771 -2.55999994277954 0
v -4.79999971389771 -2.24000000953674 0
v -1.59999990463257 -2.87999987602234 0
v -1.91999995708466 -2.87999987602234 0
v -2.24000000953674 -2.87999987602234 0
v -2.55999994277954 -2.87999987602234 0
v -2.87999987602234 -2.87999987602234 0
v -3.19999980926514 -2.87999987602234 0
v -3.51999998092651 -2.87999987602234 0
v -3.83999991416931 -2.87999987602234 0
v -4.15999984741211 -2.87999987602234 0
v -4.48000001907349 -2.87999987602234 0
v -4.79999971389771 -2.87999987602234 0
v -1.59999990463257 -3.19999980926514 0
v -1.91999995708466 -3.19999980926514 0
v -2.24000000953674 -3.19999980926514 0
v -2.55999994277954 -3.19999980926514 0
v -2.87999987602234 -3.19999980926514 0
v -3.19999980926514 -3.19999980926514 0
v -3.51999998092651 -3.19999980926514 0
v -3.83999991416931 -3.19999980926514 0
v -4.15999984741211 -3.19999980926514 0
v -4.48000001907349 -3.19999980926514 0
v -4.79999971389771 -3.19999980926514 0
v -1.59999990463257 -3.51999998092651 0
v -1.91999995708466 -3.51999998092651 0
v -2.24000000953674 -3.51999998092651 0
v -2.55999994277954 -3.51999998092651 0
v -2.87999987602234 -3.51999998092651 0
v -3.19999980926514 -3.51999998092651 0
v -3.51999998092651 -3.51999998092651 0
v -3.83999991416931 -3.51999998092651 0
v -4.15999984741211 -3.51999998092651 0
v -4.48000001907349 -3.51999998092651 0
v -4.79999971389771 -3.51999998092651 0
v -5.11999988555908 -3.51999998092651 0
v -5.44000005722046 -3.51999998092651 0
v -5.44000005722046 -3.19999980926514 0
v -5.11999988555908 -3.19999980926514 0
v -1.59999990463257 -3.83999991416931 0
v -1.91999995708466 -3.83999991416931 0
v -2.24000000953674 -3.83999991416931 0
v -2.55999994277954 -3.83999991416931 0
v -2.87999987602234 -3.83999991416931 0
v -3.19999980926514 -3.83999991416931 0
v -3.51999998092651 -3.83999991416931 0
v -3.83999991416931 -3.83999991416931 0
v -4.15999984741211 -3.83999991416931 0
v -4.48000001907349 -3.83999991416931 0
v -4.79999971389771 -3.83999991416931 0
v -1.59999990463257 -4.15999984741211 0
v -1.91999995708466 -4.15999984741211 0
v -2.24000000953674 -4.15999984741211 0
v -2.55999994277954 -4.15999984741211 0
v -2.87999987602234 -4.15999984741211 0
v -3.19999980926514 -4.15999984741211 0
v -3.51999998092651 -4.15999984741211 0
v -3.83999991416931 -4.15999984741211 0
v -4.15999984741211 -4.15999984741211 0
v -4.48000001907349 -4.15999984741211 0
v -4.79999971389771 -4.15999984741211 0
v -1.59999990463257 -4.48000001907349 0
v -1.91999995708466 -4.48000001907349 0
v -2.24000000953674 -4.48000001907349 0
v -2.55999994277954 -4.48000001907349 0
v -2.87999987602234 -4.48000001907349 0
v -3.19999980926514 -4.48000001907349 0
v -3.51999998092651 -4.48000001907349 0
v -3.83999991416931 -4.48000001907349 0
v -4.15999984741211 -4.48000001907349 0
v -4.48000001907349 -4.48000001907349 0
v -4.79999971389771 -4.48000001907349 0

# Texture Coorindates (Count = 12)
vt 0.09387207 0.93663
vt 0.1248779 0.93663
vt 0.1248779 0.9522589
vt 0.09387207 0.9522589
vt 0.09387207 0.952503
vt 0.1248779 0.952503
vt 0.1248779 0.9681319
vt 0.09387207 0.9681319
vt 0.0001220703 0.9842491
vt 0.03112793 0.9842491
vt 0.03112793 0.9998779
vt 0.0001220703 0.9998779

# Normal
vn 0 0 -1

# Groups (Count = 1)
g mesh_[00]_[01]
f  1/1/1  2/2/1  3/3/1  4/4/1 
f  2/1/1  5/2/1  6/3/1  3/4/1 
f  5/1/1  7/2/1  8/3/1  6/4/1 
f  7/1/1  9/2/1  10/3/1  8/4/1 
f  9/1/1  11/2/1  12/3/1  10/4/1 
f  11/1/1  13/2/1  14/3/1  12/4/1 
f  13/1/1  15/2/1  16/3/1  14/4/1 
f  15/1/1  17/2/1  18/3/1  16/4/1 
f  17/1/1  19/2/1  20/3/1  18/4/1 
f  19/1/1  21/2/1  22/3/1  20/4/1 
f  23/5/1  24/6/1  2/7/1  1/8/1 
f  24/5/1  25/6/1  5/7/1  2/8/1 
f  25/5/1  26/6/1  7/7/1  5/8/1 
f  26/5/1  27/6/1  9/7/1  7/8/1 
f  27/5/1  28/6/1  11/7/1  9/8/1 
f  28/5/1  29/6/1  13/7/1  11/8/1 
f  29/5/1  30/6/1  15/7/1  13/8/1 
f  30/5/1  31/6/1  17/7/1  15/8/1 
f  31/1/1  32/2/1  19/3/1  17/4/1 
f  32/1/1  33/2/1  21/3/1  19/4/1 
f  34/5/1  35/6/1  24/7/1  23/8/1 
f  35/5/1  36/6/1  25/7/1  24/8/1 
f  36/5/1  37/6/1  26/7/1  25/8/1 
f  37/5/1  38/6/1  27/7/1  26/8/1 
f  38/5/1  39/6/1  28/7/1  27/8/1 
f  39/5/1  40/6/1  29/7/1  28/8/1 
f  40/5/1  41/6/1  30/7/1  29/8/1 
f  41/5/1  42/6/1  31/7/1  30/8/1 
f  42/1/1  43/2/1  32/3/1  31/4/1 
f  43/1/1  44/2/1  33/3/1  32/4/1 
f  45/5/1  46/6/1  35/7/1  34/8/1 
f  46/5/1  47/6/1  36/7/1  35/8/1 
f  47/5/1  48/6/1  37/7/1  36/8/1 
f  48/5/1  49/6/1  38/7/1  37/8/1 
f  49/5/1  50/6/1  39/7/1  38/8/1 
f  50/5/1  51/6/1  40/7/1  39/8/1 
f  51/5/1  52/6/1  41/7/1  40/8/1 
f  52/5/1  53/6/1  42/7/1  41/8/1 
f  53/1/1  54/2/1  43/3/1  42/4/1 
f  54/1/1  55/2/1  44/3/1  43/4/1 
f  56/9/1  57/10/1  58/11/1  59/12/1 
f  60/5/1  61/6/1  46/7/1  45/8/1 
f  61/5/1  62/6/1  47/7/1  46/8/1 
f  62/5/1  63/6/1  48/7/1  47/8/1 
f  63/5/1  64/6/1  49/7/1  48/8/1 
f  64/5/1  65/6/1  50/7/1  49/8/1 
f  65/5/1  66/6/1  51/7/1  50/8/1 
f  66/5/1  67/6/1  52/7/1  51/8/1 
f  67/5/1  68/6/1  53/7/1  52/8/1 
f  68/1/1  69/2/1  54/3/1  53/4/1 
f  69/1/1  70/2/1  55/3/1  54/4/1 
f  71/5/1  72/6/1  61/7/1  60/8/1 
f  72/5/1  73/6/1  62/7/1  61/8/1 
f  73/5/1  74/6/1  63/7/1  62/8/1 
f  74/5/1  75/6/1  64/7/1  63/8/1 
f  75/5/1  76/6/1  65/7/1  64/8/1 
f  76/5/1  77/6/1  66/7/1  65/8/1 
f  77/5/1  78/6/1  67/7/1  66/8/1 
f  78/5/1  79/6/1  68/7/1  67/8/1 
f  79/1/1  80/2/1  69/3/1  68/4/1 
f  80/1/1  81/2/1  70/3/1  69/4/1 
f  82/5/1  83/6/1  72/7/1  71/8/1 
f  83/5/1  84/6/1  73/7/1  72/8/1 
f  84/5/1  85/6/1  74/7/1  73/8/1 
f  85/5/1  86/6/1  75/7/1  74/8/1 
f  86/5/1  87/6/1  76/7/1  75/8/1 
f  87/5/1  88/6/1  77/7/1  76/8/1 
f  88/5/1  89/6/1  78/7/1  77/8/1 
f  89/5/1  90/6/1  79/7/1  78/8/1 
f  90/1/1  91/2/1  80/3/1  79/4/1 
f  91/1/1  92/2/1  81/3/1  80/4/1 
